# xmcd
#
# Track frame offsets: 
#        150
#        9066
#        21637
#        31072
#        41499
#        53191
#        65344
#        75328
#        85123
#        95993
#        105822
#        119226
#
# Disc length: 1720 seconds
#
# Revision: 0
# Processed by: cddbd v1.5.2PL0 Copyright (c) Steve Scherf et al.
# Submitted via: ExactAudioCopy v0.99pb5
#
DISCID=8b06b60c
DTITLE=Patsy Cline - ICON 2 [CD1 of 2)
DYEAR=2010
DGENRE=Country
TTITLE0=Walkin' After Midnight
TTITLE1=I Fall To Pieces
TTITLE2=True Love
TTITLE3=San Antonio Rose
TTITLE4=A Poor Man's Roses (Or A Rich Man's Gold)
TTITLE5=Crazy
TTITLE6=I live You So Much It Hurts
TTITLE7=Hove You Ever Been Lonely (Have You Ever Been Blue)
TTITLE8=South Of The Border (Down Mexico Way)
TTITLE9=Strange
TTITLE10=She's Got You
TTITLE11=Heartaches
EXTD=
EXTT0=
EXTT1=
EXTT2=
EXTT3=
EXTT4=
EXTT5=
EXTT6=
EXTT7=
EXTT8=
EXTT9=
EXTT10=
EXTT11=
PLAYORDER=
